<svg width="40" height="40" viewBox="0 0 40 40" fill="none" xmlns="http://www.w3.org/2000/svg">
<circle cx="20" cy="20" r="20" fill="#0F141F"/>
<path d="M19.5245 9.46353C19.6741 9.00287 20.3259 9.00287 20.4755 9.46353L22.5819 15.9463C22.6488 16.1523 22.8408 16.2918 23.0574 16.2918H29.8738C30.3582 16.2918 30.5596 16.9116 30.1677 17.1963L24.6531 21.2029C24.4779 21.3302 24.4046 21.5559 24.4715 21.7619L26.5779 28.2447C26.7276 28.7053 26.2003 29.0884 25.8085 28.8037L20.2939 24.7971C20.1186 24.6698 19.8814 24.6698 19.7061 24.7971L14.1915 28.8037C13.7997 29.0884 13.2724 28.7053 13.4221 28.2447L15.5285 21.7619C15.5954 21.5559 15.5221 21.3302 15.3469 21.2029L9.83227 17.1963C9.44041 16.9116 9.6418 16.2918 10.1262 16.2918H16.9426C17.1592 16.2918 17.3512 16.1523 17.4181 15.9463L19.5245 9.46353Z" fill="url(#paint0_linear_249_359)"/>
<defs>
<linearGradient id="paint0_linear_249_359" x1="30.2857" y1="10.1818" x2="10.1818" y2="30.4416" gradientUnits="userSpaceOnUse">
<stop stop-color="#5390E3"/>
<stop offset="1" stop-color="#1357B3"/>
</linearGradient>
</defs>
</svg>
